<?xml version="1.0" encoding="UTF-8"?>
<svg version="1.1" xmlns="http://www.w3.org/2000/svg" width="2400" height="2400">
<path d="M0 0 C3.18121008 0.00564758 6.36241481 0.00846349 9.54362869 0.0110817 C39.49521434 0.04690712 69.32414344 0.32610907 99.17213821 3.06482315 C102.083766 3.33089829 104.99628376 3.58509511 107.90907669 3.83807755 C201.30465173 12.04630923 293.57191226 30.91316244 519.08070755 115.43072891 C521.05301739 116.3703488 523.02646392 117.30755759 524.999897 118.24481583 C541.34960086 126.02063012 557.4994445 134.00976136 573.3021431 142.85712051 C576.06424311 144.38498209 578.84546353 145.87153671 581.63466263 147.34930801 C595.77605894 154.85654136 609.46436419 162.95664779 623.09015274 171.34863663 C626.37344464 173.3672718 629.67351084 175.35123231 633.00185013 177.29462051 C658.01111421 191.9112389 682.17627955 208.51215902 705.63075638 225.50555801 C706.35931839 226.03254288 707.0878804 226.55952774 707.83852005 227.10248184 C716.54519757 233.43536199 725.08935191 239.9825433 733.62685013 246.54071426 C735.61392175 248.0653645 737.6050972 249.58428063 739.59950638 251.09930801 C751.11824809 259.88092298 762.3342525 269.03722442 773.3568306 278.43280411 C776.72194465 281.29876132 780.12964242 284.10340304 783.56825638 286.88055801 C788.33132855 290.75618734 792.87689887 294.8304009 797.39638138 298.98602676 C799.53267387 300.94211053 801.69106295 302.85993499 803.88075638 304.75555801 C808.20572646 308.51793036 812.42557887 312.39238255 816.63783646 316.27972794 C818.59694322 318.08512198 820.56510608 319.87704042 822.54652786 321.6581459 C833.40657007 331.49703569 843.69909161 341.92158645 854.04726028 352.29169083 C856.78359583 355.03375863 859.5244482 357.77126096 862.26662636 360.50748444 C864.4064516 362.64367463 866.54386323 364.78226712 868.68058014 366.92156601 C869.69000726 367.9316524 870.70015593 368.94101832 871.71109009 369.94959641 C876.79604292 375.02527852 881.79153086 380.12165829 886.45418167 385.5908699 C889.13608334 388.70162631 891.99336261 391.65022372 894.81825638 394.63055801 C899.70850968 399.82564486 904.34755355 405.13158559 908.80263138 410.70868301 C911.09446103 413.50237317 913.4955745 416.16014579 915.94325638 418.81805801 C920.3570275 423.62446522 924.50685947 428.58915885 928.60194778 433.66766739 C930.14512675 435.56644602 931.70516435 437.4506154 933.26747513 439.33368301 C939.82960037 447.24519798 946.28230092 455.20398717 952.48671341 463.40057755 C954.2024395 465.65926221 955.93014366 467.90856039 957.65810013 470.15790176 C999.80764403 525.10657036 1037.27676824 583.90467892 1068.93935013 645.50165176 C1070.73345541 648.99097463 1072.54766857 652.46553245 1074.41591263 655.91571426 C1115.49296019 731.88175646 1144.88034162 815.66892897 1200.13075638 1093.00555801 C1200.24911346 1094.2917453 1200.24911346 1094.2917453 1200.3698616 1095.60391617 C1200.96679708 1102.17036454 1201.47542185 1108.74121075 1201.94325638 1115.31805801 C1202.03152695 1116.54362411 1202.11979752 1117.76919022 1202.21074295 1119.03189468 C1204.02610924 1144.77976832 1204.30666635 1170.48911095 1204.26131439 1196.29357147 C1204.25567283 1199.55383987 1204.2528532 1202.81410306 1204.2502327 1206.07437515 C1204.21527134 1235.98993295 1204.00636019 1265.79838828 1201.19649124 1295.60547256 C1200.92825944 1298.47870127 1200.67466401 1301.35298011 1200.42323685 1304.22772598 C1192.06110442 1398.98341913 1172.69689592 1492.3393339 1094.94325638 1702.31805801 C1094.63732559 1702.98448318 1094.33139481 1703.65090836 1094.01619339 1704.33752823 C1080.93833026 1732.79843933 1066.9821887 1760.67136999 1051.36024857 1787.83075333 C1049.65260888 1790.82824352 1048.00024862 1793.85350599 1046.35121536 1796.8834877 C1035.80883733 1816.20340122 1024.10221947 1834.97921826 1011.94325638 1853.31805801 C1011.28744583 1854.31128067 1010.63163528 1855.30450333 1009.95595169 1856.32782364 C984.04092458 1895.55243929 956.50735501 1933.64776464 926.03139114 1969.47797012 C923.10041977 1972.9294566 920.22610887 1976.42024064 917.38075638 1979.94305801 C913.50512705 1984.70613019 909.43091349 1989.25170051 905.27528763 1993.77118301 C903.31920386 1995.9074755 901.40137941 1998.06586459 899.50575638 2000.25555801 C895.74338403 2004.58052809 891.86893184 2008.80038051 887.98158646 2013.01263809 C886.17619242 2014.97174485 884.38427398 2016.93990771 882.60316849 2018.9213295 C872.7642787 2029.7813717 862.33972794 2040.07389325 851.96962357 2050.42206192 C849.22755576 2053.15839746 846.49005343 2055.89924984 843.75382996 2058.64142799 C841.61763976 2060.78125323 839.47904727 2062.91866486 837.33974838 2065.05538177 C836.32966199 2066.06480889 835.32029607 2067.07495757 834.31171799 2068.08589172 C829.23603587 2073.17084455 824.1396561 2078.1663325 818.67044449 2082.82898331 C815.55968808 2085.51088498 812.61109068 2088.36816425 809.63075638 2091.19305801 C804.43566953 2096.08331132 799.1297288 2100.72235519 793.55263138 2105.17743301 C790.75894122 2107.46926266 788.1011686 2109.87037614 785.44325638 2112.31805801 C780.63684918 2116.73182914 775.67215554 2120.88166111 770.593647 2124.97674942 C768.69486838 2126.51992838 766.81069899 2128.07996598 764.92763138 2129.64227676 C757.02179802 2136.19968946 749.06898783 2142.64833289 740.87831497 2148.84833145 C738.56705052 2150.603796 736.26498666 2152.37103452 733.96278763 2154.13837051 C724.63478391 2161.28972745 715.27757013 2168.36728249 705.65224075 2175.11395645 C703.88190729 2176.36128283 702.12283307 2177.62331511 700.36513138 2178.88837051 C655.25044332 2211.23388282 607.57262001 2240.14146201 558.24403763 2265.57196426 C554.9742479 2267.25806847 551.72033436 2268.96686381 548.48622513 2270.72040176 C472.47590981 2311.8276715 388.64410453 2341.24167973 172.94325638 2389.31805801 C171.7001973 2389.49821457 171.7001973 2389.49821457 170.43202591 2389.68201065 C150.594906 2392.53745801 130.71893969 2394.74263325 110.75575638 2396.50555801 C109.43369186 2396.6239151 109.43369186 2396.6239151 108.08491898 2396.74466324 C101.37564114 2397.33777679 94.66212101 2397.84661329 87.94325638 2398.31805801 C86.70495071 2398.40632858 85.46664505 2398.49459915 84.19081497 2398.58554459 C58.78235129 2400.36236894 33.41919246 2400.68195615 7.95517731 2400.63611603 C4.76938959 2400.63047143 1.58360721 2400.62765357 -1.6021843 2400.62503433 C-31.57125011 2400.58922256 -61.41692526 2400.31043119 -91.28239059 2397.57129288 C-94.20044836 2397.30494106 -97.11941546 2397.05083339 -100.03867722 2396.79803848 C-194.63995292 2388.50968652 -288.01066094 2369.01972438 -558.75498581 2261.56464005 C-561.25008909 2260.21334631 -563.75112471 2258.87337528 -566.25205612 2257.53290176 C-580.03959136 2250.10941489 -593.58357302 2242.29586519 -607.05674362 2234.31805801 C-607.94668015 2233.79179825 -608.83661667 2233.26553848 -609.75352097 2232.72333145 C-664.41311319 2200.34083841 -716.808856 2163.58023394 -765.21665573 2122.40619278 C-768.66814221 2119.47522141 -772.15892625 2116.60091051 -775.68174362 2113.75555801 C-780.4448158 2109.87992869 -784.99038612 2105.80571513 -789.50986862 2101.65008926 C-791.64616111 2099.6940055 -793.8045502 2097.77618104 -795.99424362 2095.88055801 C-800.3192137 2092.11818567 -804.53906612 2088.24373348 -808.7513237 2084.35638809 C-810.71043046 2082.55099405 -812.67859332 2080.75907561 -814.66001511 2078.97797012 C-825.52005731 2069.13908034 -835.81257885 2058.71452958 -846.16074753 2048.3444252 C-848.89708307 2045.6023574 -851.63793544 2042.86485506 -854.3801136 2040.12863159 C-856.51993884 2037.9924414 -858.65735047 2035.85384891 -860.79406738 2033.71455002 C-861.8034945 2032.70446363 -862.81364318 2031.69509771 -863.82457733 2030.68651962 C-868.90953016 2025.61083751 -873.9050181 2020.51445774 -878.56766891 2015.04524612 C-881.24957059 2011.93448972 -884.10684986 2008.98589231 -886.93174362 2006.00555801 C-891.82199693 2000.81047117 -896.4610408 1995.50453044 -900.91611862 1989.92743301 C-903.20794827 1987.13374286 -905.60906174 1984.47597024 -908.05674362 1981.81805801 C-912.47051474 1977.01165081 -916.62034672 1972.04695718 -920.71543503 1966.96844864 C-922.25861399 1965.06967001 -923.81865159 1963.18550063 -925.38096237 1961.30243301 C-931.93837507 1953.39659966 -938.3870185 1945.44378946 -944.58701706 1937.25311661 C-946.34248161 1934.94185215 -948.10972013 1932.6397883 -949.87705612 1930.33758926 C-957.02841306 1921.00958555 -964.1059681 1911.65237177 -970.85264206 1902.02704239 C-972.09996844 1900.25670893 -973.36200072 1898.49763471 -974.62705612 1896.73993301 C-1006.84636833 1851.8012656 -1035.77883386 1804.30297849 -1061.05283737 1755.13446426 C-1062.84694265 1751.64514139 -1064.66115581 1748.17058358 -1066.52939987 1744.72040176 C-1107.60644744 1668.75435957 -1136.99382887 1584.96718705 -1194.25986862 1280.91571426 C-1194.32629562 1280.03999771 -1194.39272263 1279.16428116 -1194.46116257 1278.26202774 C-1195.68638845 1261.39149138 -1196.2236787 1244.56239871 -1196.25986862 1227.65008926 C-1196.26688804 1225.61457675 -1196.27397488 1223.57906446 -1196.28112411 1221.5435524 C-1196.30053517 1215.07255108 -1196.30555807 1208.60158551 -1196.30674362 1202.13055801 C-1196.30718548 1201.02911076 -1196.30762733 1199.9276635 -1196.30808258 1198.79283905 C-1196.31467899 1167.45965092 -1196.25316051 1136.25191254 -1193.30997849 1105.03064346 C-1193.04174668 1102.15741476 -1192.78815125 1099.28313592 -1192.53672409 1096.40839005 C-1184.23562771 1002.34135416 -1165.19654228 909.50795059 -1112.05674362 756.31805801 C-1111.67966263 755.37404129 -1111.67966263 755.37404129 -1111.29496384 754.41095352 C-1103.71938632 735.49126812 -1095.56657819 716.83421028 -1087.05674362 698.31805801 C-1086.75081284 697.65163284 -1086.44488205 696.98520767 -1086.12968063 696.2985878 C-1073.0518175 667.8376767 -1059.09567594 639.96474603 -1043.47373581 612.8053627 C-1041.76647445 609.8085366 -1040.11441865 606.78398626 -1038.46592331 603.75458145 C-1022.75639665 574.969223 -1004.78386311 547.20900469 -986.05674362 520.31805801 C-984.91471536 518.66838847 -983.77279051 517.01864733 -982.63096237 515.36883926 C-962.47303167 486.32589347 -941.05306339 458.09100944 -918.14487839 431.1581459 C-915.21390701 427.70665943 -912.33959612 424.21587539 -909.49424362 420.69305801 C-905.6186143 415.92998584 -901.54440074 411.38441552 -897.38877487 406.86493301 C-895.43269111 404.72864053 -893.51486665 402.57025144 -891.61924362 400.38055801 C-887.85687128 396.05558794 -883.98241908 391.83573552 -880.0950737 387.62347794 C-878.28967966 385.66437117 -876.49776122 383.69620832 -874.71665573 381.71478653 C-864.87776595 370.85474433 -854.45321519 360.56222278 -844.08311081 350.21405411 C-841.341043 347.47771856 -838.60354067 344.73686619 -835.8673172 341.99468803 C-833.731127 339.8548628 -831.59253451 337.71745116 -829.45323563 335.58073425 C-828.44314923 334.57130714 -827.43378332 333.56115846 -826.42520523 332.5502243 C-821.34952311 327.46527147 -816.25314335 322.46978353 -810.78393173 317.80713272 C-807.67317533 315.12523105 -804.72457792 312.26795178 -801.74424362 309.44305801 C-796.54915678 304.55280471 -791.24321605 299.91376084 -785.66611862 295.45868301 C-782.87242847 293.16685337 -780.21465584 290.76573989 -777.55674362 288.31805801 C-772.75033642 283.90428689 -767.78564279 279.75445492 -762.70713425 275.65936661 C-760.80835562 274.11618765 -758.92418623 272.55615005 -757.04111862 270.99383926 C-749.12960366 264.43171402 -741.17081446 257.97901347 -732.97422409 251.77460098 C-730.71553943 250.05887489 -728.46624125 248.33117073 -726.21689987 246.60321426 C-671.26823128 204.45367037 -612.47012271 166.98454615 -550.87314987 135.32196426 C-547.383827 133.52785898 -543.90926918 131.71364582 -540.45908737 129.84540176 C-464.47169462 88.75680933 -380.75937992 59.46236032 -102.86924362 4.13055801 C-102.04174606 4.05165329 -101.2142485 3.97274857 -100.36167526 3.89145279 C-66.94220462 0.74074363 -33.54962549 -0.06052805 0 0 Z " fill="#000000" transform="translate(1196.0567436218262,-0.3180580139160156)"/>
<path d="M0 0 C1.59871948 0.01740234 1.59871948 0.01740234 3.22973633 0.03515625 C20.37262154 0.38535263 35.83113258 4.68142569 52.2734375 9.33203125 C61.83132243 12.01871274 71.47027831 14.31080894 81.13818359 16.5625 C85.04788498 17.47354091 88.95572123 18.39232726 92.86328125 19.3125 C94.31282415 19.65373306 95.76236843 19.99496021 97.21191406 20.33618164 C97.93882446 20.50731476 98.66573486 20.67844788 99.41467285 20.85476685 C101.62110834 21.37408404 103.82762959 21.89303522 106.03417969 22.41186523 C110.23130813 23.39877758 114.42822392 24.38659036 118.625 25.375 C119.78628418 25.64844238 120.94756836 25.92188477 122.14404297 26.20361328 C133.90446801 28.97937672 145.62379754 31.87301532 157.3125 34.9375 C167.21071842 37.53218545 177.13511756 39.9074474 187.12109375 42.13671875 C201.92364259 45.44658891 216.64141112 49.08973839 231.3125 52.9375 C241.21069307 55.53228135 251.13512034 57.90744802 261.12109375 60.13671875 C275.92364259 63.44658891 290.64141112 67.08973839 305.3125 70.9375 C315.21069307 73.53228135 325.13512034 75.90744802 335.12109375 78.13671875 C349.92364259 81.44658891 364.64141112 85.08973839 379.3125 88.9375 C389.21069307 91.53228135 399.13512034 93.90744802 409.12109375 96.13671875 C423.92364259 99.44658891 438.64141112 103.08973839 453.3125 106.9375 C463.21588664 109.53364283 473.14565566 111.9095407 483.13671875 114.140625 C498.62424682 117.60395143 514.01615839 121.44681787 529.375 125.4375 C541.4256063 128.5680328 553.50021194 131.54600877 565.625 134.375 C571.31373488 135.70311219 577.00133049 137.03594568 582.6875 138.375 C583.4728714 138.55984955 584.2582428 138.7446991 585.06741333 138.93515015 C602.46495008 143.03808439 619.80029526 147.3866644 637.12915039 151.76953125 C648.13782686 154.54728171 659.1549704 157.23982063 670.24047852 159.69573975 C675.90754761 160.95595663 681.52063744 162.36076808 687.125 163.875 C693.80436112 165.66730281 700.50145078 167.30052667 707.25 168.8125 C723.92707922 172.55114962 740.53090818 176.53648375 757.0625 180.875 C769.13739006 184.04174373 781.27220889 186.87431888 793.44287109 189.64550781 C807.37207016 192.83872914 821.24021189 196.24793802 835.0625 199.875 C843.53475753 202.0969853 852.01868101 204.19675058 860.5625 206.125 C874.58507556 209.29178162 888.51666449 212.81252735 902.45483398 216.32910156 C918.70532463 220.4250896 935.00195526 224.30579281 951.32519531 228.1003418 C968.18726667 232.0280746 984.98923399 236.17540481 1001.77172852 240.43017578 C1013.56837899 243.41254839 1025.40244056 246.17822112 1037.27435303 248.84420776 C1042.21345478 249.95949087 1047.13952094 251.12837763 1052.0625 252.3125 C1053.09342773 252.55991943 1054.12435547 252.80733887 1055.18652344 253.06225586 C1063.23617603 255.00834596 1071.2477633 257.08495608 1079.25512695 259.19726562 C1085.4030173 260.81293901 1091.56377321 262.35068203 1097.75 263.8125 C1098.58096191 264.00980713 1099.41192383 264.20711426 1100.26806641 264.41040039 C1104.23843283 265.35000668 1108.21066593 266.27999165 1112.1875 267.19189453 C1116.04399275 268.07649731 1119.89697907 268.97540994 1123.75 269.875 C1124.95930176 270.14755615 1126.16860352 270.4201123 1127.41455078 270.70092773 C1144.16133764 274.63923655 1157.78339288 283.14301247 1171.49829102 293.19335938 C1176.96821821 297.19959931 1182.51202539 301.07216074 1188.125 304.875 C1195.10174258 309.61079295 1201.96993148 314.47304517 1208.78955078 319.43188477 C1216.81805364 325.26167065 1224.9532511 330.93564905 1233.09277344 336.60888672 C1237.27417315 339.52522354 1241.44928666 342.45053005 1245.625 345.375 C1247.29163607 346.54171037 1248.95830275 347.70837702 1250.625 348.875 C1280.625 369.875 1310.625 390.875 1340.625 411.875 C1341.4507251 412.4529834 1342.2764502 413.0309668 1343.12719727 413.62646484 C1344.78663156 414.78811751 1346.44597466 415.94990045 1348.10522461 417.11181641 C1352.38179158 420.10629575 1356.66012736 423.098198 1360.94140625 426.0859375 C1365.84201713 429.50699916 1370.73697399 432.93598033 1375.625 436.375 C1376.54490723 437.02154541 1376.54490723 437.02154541 1377.48339844 437.68115234 C1382.56475179 441.26492209 1387.45845241 444.71827034 1391.625 449.375 C1392.45 450.261875 1393.275 451.14875 1394.125 452.0625 C1405.09365528 465.65259491 1406.65468396 484.52367002 1405.17138672 501.32861328 C1403.85909994 508.64528642 1399.26993914 513.6546895 1394.51220703 519.10644531 C1390.87399763 523.47982717 1387.76678405 528.24262991 1384.5625 532.9375 C1383.18766345 534.9189864 1381.81138897 536.89947597 1380.43359375 538.87890625 C1376.88655962 543.99268555 1373.35724499 549.11835411 1369.83862305 554.25170898 C1365.87951696 560.02123487 1361.87691172 565.76011519 1357.875 571.5 C1351.95117862 579.99939589 1346.08952323 588.53847113 1340.26831055 597.10839844 C1335.79084894 603.6907298 1331.24982486 610.22628627 1326.6875 616.75 C1320.39185924 625.75662703 1314.27143382 634.86940939 1308.20117188 644.02905273 C1304.04348697 650.28866694 1299.77554143 656.43001857 1295.3671875 662.515625 C1289.29017892 670.9888714 1283.53980609 679.69936286 1277.69091797 688.33056641 C1274.76340836 692.64468184 1271.82127367 696.94868525 1268.875 701.25 C1268.35591064 702.00796875 1267.83682129 702.7659375 1267.30200195 703.546875 C1266.2662066 705.05914595 1265.23031866 706.57135349 1264.19433594 708.08349609 C1262.56863294 710.45730572 1260.94428199 712.8320354 1259.3203125 715.20703125 C1253.81849262 723.25299861 1248.3092292 731.29369674 1242.78417969 739.32373047 C1237.60278491 746.85673881 1232.44296692 754.40449406 1227.28222656 761.95166016 C1224.02408431 766.71599722 1220.76433688 771.47923613 1217.50488281 776.24267578 C1214.77094637 780.23823913 1212.03741359 784.23407748 1209.3046875 788.23046875 C1203.80777047 796.26841346 1198.30390687 804.30143214 1192.78417969 812.32373047 C1187.04820243 820.66302257 1181.33793578 829.01991514 1175.625 837.375 C1169.02343908 847.02968611 1162.4186896 856.68203311 1155.78857422 866.31713867 C1152.2253442 871.49715052 1148.67379736 876.68509212 1145.125 881.875 C1140.68922237 888.36206446 1136.24396734 894.84246559 1131.7890625 901.31640625 C1128.22569401 906.49667894 1124.67396298 911.68484992 1121.125 916.875 C1116.68922237 923.36206446 1112.24396734 929.84246559 1107.7890625 936.31640625 C1104.22569397 941.496679 1100.67398123 946.68486235 1097.125 951.875 C1090.86299601 961.03219059 1084.57992923 970.17475512 1078.29101562 979.31347656 C1072.33487 987.9694517 1066.39221702 996.63449258 1060.46142578 1005.30786133 C1056.57955216 1010.98353531 1052.68704784 1016.65179013 1048.7890625 1022.31640625 C1045.22569397 1027.496679 1041.67398123 1032.68486235 1038.125 1037.875 C1031.86299601 1047.03219059 1025.57992923 1056.17475512 1019.29101562 1065.31347656 C1013.33487 1073.9694517 1007.39221702 1082.63449258 1001.46142578 1091.30786133 C997.57955216 1096.98353531 993.68704784 1102.65179013 989.7890625 1108.31640625 C986.22569397 1113.496679 982.67398123 1118.68486235 979.125 1123.875 C972.86299601 1133.03219059 966.57992923 1142.17475512 960.29101562 1151.31347656 C954.33487 1159.9694517 948.39221702 1168.63449258 942.46142578 1177.30786133 C938.57955216 1182.98353531 934.68704784 1188.65179013 930.7890625 1194.31640625 C927.22569401 1199.49667894 923.67396298 1204.68484992 920.125 1209.875 C915.68922237 1216.36206446 911.24396734 1222.84246559 906.7890625 1229.31640625 C903.22569401 1234.49667894 899.67396298 1239.68484992 896.125 1244.875 C891.68922237 1251.36206446 887.24396734 1257.84246559 882.7890625 1264.31640625 C879.22569401 1269.49667894 875.67396298 1274.68484992 872.125 1279.875 C867.68922237 1286.36206446 863.24396734 1292.84246559 858.7890625 1299.31640625 C855.22569401 1304.49667894 851.67396298 1309.68484992 848.125 1314.875 C843.68922237 1321.36206446 839.24396734 1327.84246559 834.7890625 1334.31640625 C831.22569401 1339.49667894 827.67396298 1344.68484992 824.125 1349.875 C819.68922237 1356.36206446 815.24396734 1362.84246559 810.7890625 1369.31640625 C807.22569401 1374.49667894 803.67396298 1379.68484992 800.125 1384.875 C795.68922237 1391.36206446 791.24396734 1397.84246559 786.7890625 1404.31640625 C783.22569401 1409.49667894 779.67396298 1414.68484992 776.125 1419.875 C771.68922237 1426.36206446 767.24396734 1432.84246559 762.7890625 1439.31640625 C759.22569401 1444.49667894 755.67396298 1449.68484992 752.125 1454.875 C747.68922237 1461.36206446 743.24396734 1467.84246559 738.7890625 1474.31640625 C735.22569401 1479.49667894 731.67396298 1484.68484992 728.125 1489.875 C723.68922237 1496.36206446 719.24396734 1502.84246559 714.7890625 1509.31640625 C711.22569401 1514.49667894 707.67396298 1519.68484992 704.125 1524.875 C699.68922237 1531.36206446 695.24396734 1537.84246559 690.7890625 1544.31640625 C687.22569401 1549.49667894 683.67396298 1554.68484992 680.125 1559.875 C675.68922237 1566.36206446 671.24396734 1572.84246559 666.7890625 1579.31640625 C663.22569401 1584.49667894 659.67396298 1589.68484992 656.125 1594.875 C651.68922237 1601.36206446 647.24396734 1607.84246559 642.7890625 1614.31640625 C639.22569366 1619.49667944 635.67413016 1624.68496382 632.125 1629.875 C630.48658139 1632.2695932 628.84804168 1634.66410348 627.20947266 1637.05859375 C626.17477534 1638.57126064 625.14057343 1640.08426656 624.10693359 1641.59765625 C621.36128376 1645.61719277 618.60136823 1649.62615025 615.82568359 1653.625 C614.71326638 1655.24635149 613.63065872 1656.88804662 612.55078125 1658.53125 C604.77980382 1670.00644588 594.63107534 1676.19185629 581.1875 1679.125 C579.4240625 1679.24875 579.4240625 1679.24875 577.625 1679.375 C576.75488281 1679.43816406 575.88476562 1679.50132813 574.98828125 1679.56640625 C561.18164025 1680.12589105 549.95762485 1675.32052696 539.875 1666.125 C533.65557242 1659.48520326 530.74819689 1650.50417503 527.7890625 1642.0546875 C527.43748077 1641.06793533 527.08589905 1640.08118317 526.72366333 1639.06452942 C525.96136016 1636.92262965 525.20196643 1634.77969261 524.44519043 1632.63583374 C523.21681631 1629.15599452 521.98094777 1625.67889523 520.74316406 1622.20239258 C519.41644567 1618.47555314 518.09001387 1614.74861644 516.76647949 1611.02064514 C512.15046915 1598.0203839 507.4834765 1585.03858718 502.81253052 1572.0579834 C500.63025061 1565.99315399 498.45046084 1559.92742941 496.2703495 1553.86182022 C495.53447321 1551.81450592 494.798523 1549.76721821 494.06254578 1547.71994019 C490.60196342 1538.09357605 487.14252066 1528.46680283 483.68359375 1518.83984375 C475.00383706 1494.68257492 466.32224279 1470.52598067 457.625 1446.375 C450.88868585 1427.66923348 444.16087014 1408.96042192 437.4375 1390.25 C437.19676884 1389.58007774 436.95603767 1388.91015549 436.70801163 1388.21993256 C432.76514561 1377.24743811 428.82266886 1366.27480382 424.88023376 1355.30215454 C421.19116986 1345.03470477 417.50200047 1334.76729291 413.8125 1324.5 C413.45190365 1323.49651772 413.45190365 1323.49651772 413.08402252 1322.47276306 C404.3298935 1298.11171407 395.56534372 1273.75442631 386.79443359 1249.39941406 C383.44718506 1240.10459079 380.10117469 1230.80932176 376.7550354 1221.51409912 C374.87840427 1216.30104904 373.00169847 1211.08802584 371.125 1205.875 C370.37499964 1203.7916668 369.62499964 1201.70833346 368.875 1199.625 C368.50375 1198.59375 368.1325 1197.5625 367.75 1196.5 C274.37500016 937.12500046 274.37500016 937.12500046 273.24992371 933.99978638 C272.50017946 931.9171646 271.75043377 929.83454334 271.00068665 927.75192261 C269.12176178 922.53270669 267.2428622 917.31348168 265.36401367 912.09423828 C262.03588038 902.84910894 258.70760533 893.60403083 255.37832642 884.35931396 C246.37062857 859.34674654 237.37307338 834.33055188 228.38355255 809.31144714 C221.69838509 790.70576415 215.0100617 772.10122609 208.3125 753.5 C207.76642593 751.98336761 207.76642593 751.98336761 207.20932007 750.43609619 C204.68147959 743.41563492 202.15328612 736.39530079 199.625 729.375 C196.72891281 721.33342473 193.83300123 713.29178628 190.9375 705.25 C190.57385345 704.24003967 190.21020691 703.23007935 189.83554077 702.18951416 C183.01044865 683.23294695 176.19635367 664.27243383 169.38355255 645.31144714 C162.69838507 626.70576411 156.01000352 608.10124707 149.3125 589.5 C148.94977997 588.49256744 148.58705994 587.48513489 148.21334839 586.44717407 C144.575872 576.34453806 140.93748009 566.24223207 137.29824829 556.14022827 C128.93405387 532.92161888 120.58490102 509.69771785 112.26040649 486.46484375 C105.64194285 467.99379452 99.01181764 449.52696009 92.375 431.0625 C91.89047213 429.71444712 91.40594454 428.36639415 90.92141724 427.01834106 C87.48959948 417.4704452 84.05733962 407.92270827 80.625 398.375 C67.76203231 362.59419839 54.9057578 326.81104839 42.08036804 291.01675415 C39.36367189 283.43511042 36.64512082 275.85413346 33.92578125 268.2734375 C25.38776765 244.47030015 16.8660577 220.66143164 8.36502075 196.84506226 C1.91330452 178.77071955 -4.55532262 160.70251014 -11.03613281 142.63858032 C-15.66906399 129.72469936 -20.29436598 116.80813049 -24.90625 103.88671875 C-25.1362117 103.24247578 -25.3661734 102.5982328 -25.60310364 101.93446732 C-28.05890059 95.05440702 -30.51358875 88.17395267 -32.96679688 81.29296875 C-33.76951925 79.04296447 -34.57225303 76.79296426 -35.375 74.54296875 C-35.73662231 73.52772629 -36.09824463 72.51248383 -36.4708252 71.46647644 C-36.81045288 70.51485123 -37.15008057 69.56322601 -37.5 68.58276367 C-37.81784958 67.69035477 -38.13569916 66.79794586 -38.46318054 65.87849426 C-39.30168312 63.57629904 -40.19012332 61.3000323 -41.08911133 59.02099609 C-44.40660726 49.61460077 -44.528186 36.03296894 -40.79296875 26.71875 C-38.9935969 23.0035711 -36.80696395 19.70621473 -34.375 16.375 C-33.86324219 15.6325 -33.35148438 14.89 -32.82421875 14.125 C-24.67353335 3.47170978 -12.86569514 -0.18090296 0 0 Z " fill="#FEFEFE" transform="translate(605.375,402.625)"/>
<path d="M0 0 C8.26355257 1.37421466 16.34408295 3.23980881 24.4609375 5.30078125 C26.39770722 5.78750344 28.33447728 6.27422429 30.27126503 6.76087475 C32.96305283 7.43817348 35.65400927 8.11874316 38.3449707 8.79931641 C44.29910841 10.30449951 50.25492923 11.80301972 56.2109375 13.30078125 C56.85468134 13.46271469 57.49842518 13.62464813 58.16167641 13.79148865 C74.94394064 18.01040878 91.78041066 21.96829638 108.64941406 25.82305908 C122.08117004 28.89528109 135.47290305 32.07259452 148.82617188 35.47167969 C158.20462053 37.84245018 167.63016531 39.97232907 177.0718689 42.07180786 C185.44598214 43.93645456 193.7603429 45.91686027 202.03833008 48.16772461 C208.24042238 49.83972189 214.48424646 51.27500866 220.75 52.6875 C233.74365132 55.62463018 246.63173297 58.93837055 259.51855469 62.30932617 C268.80878218 64.7296141 278.12329092 66.9610271 287.49169922 69.05825806 C297.26454405 71.25887111 306.97250195 73.70361064 316.68322754 76.16165161 C331.1254473 79.81532109 345.56511717 83.43750448 360.10058594 86.70288086 C371.76197452 89.3505018 383.34405574 92.32091761 394.93969727 95.24005127 C405.52241836 97.90253372 416.10213371 100.54546906 426.75 102.9375 C441.34107755 106.21637983 455.82651006 109.92985968 470.32324219 113.59936523 C479.85469292 116.00584913 489.3909703 118.3484717 498.984375 120.49609375 C511.73010536 123.3494692 524.38073842 126.56274972 537.04101562 129.77050781 C550.55424822 133.19009433 564.09167711 136.43296441 577.69366455 139.48028564 C582.61840755 140.59003732 587.52931076 141.75702219 592.4375 142.9375 C593.47205322 143.18564453 594.50660645 143.43378906 595.57250977 143.68945312 C602.55069665 145.37572883 609.49806512 147.16146924 616.4375 149 C624.15782458 151.04353818 631.89779547 152.92759228 639.6875 154.6875 C651.84042817 157.43533188 663.91820608 160.45725467 676 163.5 C693.33914136 167.86748912 693.33914136 167.86748912 710.75 171.9375 C725.34107755 175.21637983 739.82651006 178.92985968 754.32324219 182.59936523 C763.85989143 185.00716115 773.40142132 187.35094398 783 189.5 C793.60745966 191.87493756 804.1459619 194.49439154 814.68322754 197.16165161 C829.1254473 200.81532109 843.56511717 204.43750448 858.10058594 207.70288086 C869.7471262 210.34713061 881.31457978 213.31326539 892.89538574 216.22897339 C907.18062048 219.82337669 921.48063785 223.29810653 935.85742188 226.51025391 C937.91241196 226.97997931 939.95693131 227.48109774 942 228 C940.58261511 231.25207092 938.87473588 233.31361067 936.3125 235.75 C933.55768063 238.4302304 930.94075141 241.14581567 928.4375 244.0625 C925.67637026 247.27442643 922.76644381 250.25612089 919.74609375 253.22265625 C917.93522357 255.06593574 916.24678646 256.97822799 914.5625 258.9375 C911.52320349 262.46634763 908.28983153 265.73005027 904.97265625 268.99609375 C902.42662171 271.58246151 900.07978443 274.3153528 897.71484375 277.06640625 C895.4995262 279.56431556 893.1310183 281.88024989 890.75 284.21875 C888.91757513 286.08389674 887.20646865 288.01927746 885.5 290 C882.74656316 293.19595347 879.85322821 296.17230063 876.84350586 299.12524414 C875.06663359 300.93223688 873.40563127 302.79344934 871.75390625 304.71484375 C868.08596497 308.93292779 864.28338749 313.00692347 860.4375 317.0625 C859.02187522 318.56095214 857.60651555 320.05965478 856.19140625 321.55859375 C855.48773926 322.30351074 854.78407227 323.04842773 854.05908203 323.81591797 C850.98643056 327.07509986 847.92925549 330.34858528 844.875 333.625 C844.30724854 334.23400146 843.73949707 334.84300293 843.15454102 335.47045898 C842.01180764 336.69638296 840.86914787 337.92237557 839.7265625 339.1484375 C837.96485513 341.0376893 836.20143131 342.92532458 834.4375 344.8125 C828.96186004 350.67171195 823.49480097 356.53806129 818.0625 362.4375 C812.93198899 368.00919704 807.75402518 373.53534765 802.56884766 379.05615234 C798.67261401 383.20754992 794.79409647 387.37426474 790.9375 391.5625 C783.73484902 399.38452573 776.47001248 407.14822002 769.20898438 414.91601562 C763.12231344 421.42842092 757.04033956 427.94456154 751 434.5 C743.77484705 442.34128858 736.49009931 450.12673127 729.20898438 457.91601562 C722.63201488 464.95301359 716.06641596 471.99958622 709.54077148 479.08422852 C705.69092093 483.26047805 701.81695543 487.41375482 697.9375 491.5625 C692.87224409 496.98012153 687.84741226 502.43165482 682.84375 507.90625 C678.99002945 512.11030878 675.08718356 516.26856185 671.19140625 520.43359375 C667.60612869 524.2699192 664.04247746 528.1241129 660.5 532 C655.78872712 537.15403568 651.03100608 542.2629371 646.26171875 547.36328125 C642.49298038 551.39533758 638.73917442 555.44052153 635 559.5 C628.95698001 566.0586051 622.87184283 572.57744942 616.78222656 579.09277344 C613.85331345 582.22711169 610.92676401 585.36365512 608 588.5 C606.83334493 589.75001083 605.66667826 591.00001082 604.5 592.25 C603.63375 593.178125 603.63375 593.178125 602.75 594.125 C583.5 614.75 564.25 635.375 545 656 C541.86006282 654.63880947 540.06578797 653.20621833 537.93359375 650.54296875 C537.3710791 649.84888916 536.80856445 649.15480957 536.22900391 648.43969727 C535.63780762 647.69647217 535.04661133 646.95324707 534.4375 646.1875 C533.18438155 644.63738364 531.9304666 643.08791086 530.67578125 641.5390625 C530.05525879 640.76981445 529.43473633 640.00056641 528.79541016 639.20800781 C526.28438775 636.11993511 523.71047817 633.08824554 521.125 630.0625 C517.42902253 625.71952862 513.82594919 621.31484887 510.28125 616.84765625 C503.03716293 607.80495167 495.63218417 598.88768874 488.125 590.0625 C484.43008666 585.71860491 480.82597613 581.31488282 477.28125 576.84765625 C469.59855814 567.25744672 461.72673103 557.8187355 453.76245117 548.46166992 C450.45295986 544.56327932 447.25644475 540.58654937 444.08203125 536.578125 C441.66915908 533.59032832 439.18203921 530.66943803 436.6875 527.75 C432.88256036 523.29361056 429.21197521 518.75831196 425.625 514.125 C421.21992069 508.44153739 416.58085013 503.00766588 411.83642578 497.60595703 C407.77073598 492.95274676 403.93916872 488.15950802 400.1640625 483.26953125 C396.75233305 478.88161331 393.16756533 474.67551452 389.5 470.5 C385.34834263 465.77334783 381.34461407 460.97972408 377.5 456 C373.09041526 450.29114817 368.45073922 444.82570956 363.69970703 439.39892578 C359.78462908 434.92338335 355.98856254 430.36752769 352.24609375 425.74609375 C349.68109606 422.61010527 347.0634254 419.52244685 344.4375 416.4375 C340.56746831 411.88725677 336.80039718 407.2716668 333.08984375 402.58984375 C330.16779685 398.96869031 327.15178514 395.43045431 324.13671875 391.88671875 C320.468844 387.57037996 316.87873679 383.1952084 313.3046875 378.80078125 C310.77966925 375.73224213 308.20515231 372.70960188 305.625 369.6875 C301.84207508 365.25148397 298.19467263 360.73399357 294.625 356.125 C290.16948329 350.37972845 285.48856595 344.86904559 280.70019531 339.39941406 C276.78368043 334.92239615 272.98672933 330.36457063 269.2421875 325.7421875 C266.69746142 322.62999637 264.10374084 319.56280258 261.5 316.5 C255.85125097 309.8498107 250.33176132 303.09878551 244.828125 296.328125 C240.30588185 290.77955717 235.72116721 285.29085205 231.08642578 279.83642578 C227.43741903 275.53531031 223.86369742 271.17671694 220.3046875 266.80078125 C217.77966925 263.73224213 215.20515231 260.70960188 212.625 257.6875 C208.84207508 253.25148397 205.19467263 248.73399357 201.625 244.125 C197.16948329 238.37972845 192.48856595 232.86904559 187.70019531 227.39941406 C183.78368043 222.92239615 179.98672933 218.36457063 176.2421875 213.7421875 C173.69746317 210.62999852 171.10381775 207.56273503 168.5 204.5 C164.37886052 199.65051278 160.33008388 194.74838877 156.3125 189.8125 C153.73853608 186.68200334 151.12430914 183.58827539 148.5 180.5 C144.38016701 175.65179875 140.33204036 170.75154155 136.31640625 165.81640625 C133.72212734 162.66214808 131.08393735 159.5479702 128.4375 156.4375 C124.56758198 151.88715684 120.80040103 147.27167165 117.08984375 142.58984375 C114.16779685 138.96869031 111.15178514 135.43045431 108.13671875 131.88671875 C105.21995487 128.45428391 102.34306574 124.99407185 99.5 121.5 C96.21176517 117.46016863 92.87278574 113.46907935 89.5 109.5 C85.37898366 104.65040619 81.33008646 99.74839194 77.3125 94.8125 C74.2756723 91.1190609 71.18039045 87.47701514 68.08374023 83.83374023 C65.2045468 80.44045891 62.36795763 77.01732214 59.5625 73.5625 C56.15524542 69.37175907 52.65894711 65.27084698 49.125 61.1875 C44.6173758 55.9712287 40.30640377 50.63582942 36.08129883 45.18920898 C32.47787665 40.5610616 28.72702926 36.07716813 24.91821289 31.61743164 C21.52037801 27.63386836 18.22585345 23.58163378 14.9765625 19.4765625 C12.76634096 16.70723353 10.50886017 13.97976262 8.25 11.25 C5.26364153 7.61376042 2.4833439 3.99494453 0 0 Z " fill="#000000" transform="translate(719,520)"/>
<path d="M0 0 C7.08377651 6.86240849 13.37358134 14.39584207 19.58203125 22.046875 C22.18689223 25.2282561 24.83668141 28.36760829 27.5 31.5 C33.14880352 38.15014228 38.66823975 44.9012158 44.171875 51.671875 C48.23406081 56.65597532 52.33781943 61.59941456 56.5 66.5 C62.14840972 73.15048379 67.66823149 79.90120564 73.171875 86.671875 C77.23406158 91.65597626 81.33785938 96.59938022 85.5 101.5 C89.55000511 106.26921695 93.54351856 111.07912116 97.49609375 115.9296875 C105.30665265 125.50706549 113.15890958 135.04752957 121.16308594 144.46386719 C126.25455119 150.46115279 131.20987245 156.56754093 136.171875 162.671875 C140.69411815 168.22044283 145.27883279 173.70914795 149.91357422 179.16357422 C153.55954932 183.46111625 157.1297728 187.81657801 160.6875 192.1875 C163.26146545 195.31799851 165.87576903 198.41165634 168.5 201.5 C174.14857944 208.15033651 179.66823508 214.90121006 185.171875 221.671875 C189.69411815 227.22044283 194.27883279 232.70914795 198.91357422 238.16357422 C202.55954932 242.46111625 206.1297728 246.81657801 209.6875 251.1875 C212.26146392 254.31799666 214.87569086 257.41172461 217.5 260.5 C221.62101634 265.34959381 225.66991354 270.25160806 229.6875 275.1875 C232.26146392 278.31799666 234.87569086 281.41172461 237.5 284.5 C241.61983299 289.34820125 245.66795964 294.24845845 249.68359375 299.18359375 C252.27787266 302.33785192 254.91606265 305.4520298 257.5625 308.5625 C261.43241802 313.11284316 265.19959897 317.72832835 268.91015625 322.41015625 C271.83220315 326.03130969 274.84821486 329.56954569 277.86328125 333.11328125 C280.78004513 336.54571609 283.65693426 340.00592815 286.5 343.5 C289.78823483 347.53983137 293.12721426 351.53092065 296.5 355.5 C300.62101634 360.34959381 304.66991354 365.25160806 308.6875 370.1875 C311.26146594 373.31799912 313.87579466 376.4116341 316.5 379.5 C320.55012599 384.2691121 324.54352113 389.07912432 328.49609375 393.9296875 C336.30791948 403.50861889 344.15972837 413.05229952 352.16748047 422.46826172 C355.73028404 426.66328182 359.21325575 430.91914278 362.6875 435.1875 C365.26146392 438.31799666 367.87569086 441.41172461 370.5 444.5 C374.62101634 449.34959381 378.66991354 454.25160806 382.6875 459.1875 C385.26146545 462.31799851 387.87576903 465.41165634 390.5 468.5 C396.14857944 475.15033651 401.66823508 481.90121006 407.171875 488.671875 C411.23406081 493.65597532 415.33781943 498.59941456 419.5 503.5 C425.14840972 510.15048379 430.66823149 516.90120564 436.171875 523.671875 C440.23406158 528.65597626 444.33785938 533.59938022 448.5 538.5 C452.55118839 543.27061036 456.54548906 548.08225622 460.5 552.93359375 C467.91453168 562.02798026 475.33257414 571.11691239 483 580 C489.80608855 587.88518623 496.40502737 595.93808875 503 604 C503.79019531 604.96550781 504.58039063 605.93101562 505.39453125 606.92578125 C506.79701707 608.64050881 508.19936106 610.35535238 509.6015625 612.0703125 C517.39020561 621.58412737 525.18900196 631.08612303 533.15429688 640.45288086 C536.84855667 644.80299565 540.48166142 649.19895365 544.05078125 653.65234375 C545.88437211 655.94363067 545.88437211 655.94363067 547.66796875 657.62890625 C549.71331942 659.63988128 550.92529605 661.3307 551.24633789 664.20703125 C551.17647191 671.8937302 550.35575543 679.38122774 549.375 687 C547.34529723 703.35075154 545.65316528 719.73243971 544 736.125 C543.87035858 737.40746613 543.74071716 738.68993225 543.60714722 740.01126099 C542.35677987 752.38749668 541.1181149 764.76484813 539.90234375 777.14453125 C539.58126979 780.40890765 539.25969254 783.67323381 538.9375 786.9375 C538.86082092 787.71485504 538.78414185 788.49221008 538.70513916 789.29312134 C537.11718266 805.32956023 535.29840515 821.33852001 533.44641113 837.34634399 C531.06089852 857.57630372 531.06089852 857.57630372 529.3684082 877.87182617 C528.5661101 890.35887614 527.10322547 902.71845268 525.49749756 915.12045288 C522.9565814 934.78475655 520.79245783 954.48888591 518.63312435 974.19786358 C518.27278958 977.4861247 517.91175626 980.77430911 517.55078125 984.0625 C517.41319901 985.31952225 517.27561676 986.57654449 517.13386536 987.87165833 C516.45346467 994.04865667 515.73246389 1000.21433958 514.91796875 1006.375 C514.00486833 1013.49984235 513.41685666 1020.63537384 512.8427887 1027.79362488 C511.73028469 1041.56775048 510.39703409 1055.32132713 509.078125 1069.0769043 C508.77745884 1072.21407259 508.47897593 1075.35143557 508.18261719 1078.48901367 C506.52883612 1095.9931551 504.76323049 1113.47554521 502.7298584 1130.93991661 C501.02675986 1145.57032617 499.51092751 1160.21567269 498.04946899 1174.87197876 C497.30597328 1182.32802216 496.55308822 1189.78312271 495.80078125 1197.23828125 C495.72510359 1197.98890776 495.64942593 1198.73953426 495.571455 1199.51290703 C493.91202812 1215.96556867 492.18155627 1232.41046484 490.43667603 1248.85427856 C488.75200753 1264.7360588 487.13178044 1280.6225498 485.57156372 1296.51699829 C484.27258445 1309.70905653 482.76259139 1322.86068233 481 1336 C479.3691391 1333.55370865 478.45408893 1331.80400085 477.48217773 1329.10668945 C477.19616196 1328.31893631 476.91014618 1327.53118317 476.61546326 1326.71955872 C476.30794632 1325.85948715 476.00042938 1324.99941559 475.68359375 1324.11328125 C475.35557266 1323.20555466 475.02755157 1322.29782806 474.68959045 1321.3625946 C473.6014304 1318.34736696 472.5193706 1315.32998949 471.4375 1312.3125 C470.67208714 1310.18677256 469.90645867 1308.06112275 469.140625 1305.93554688 C463.51786805 1290.31025199 457.97023491 1274.65854013 452.44061279 1259.00009155 C445.46848173 1239.25918328 438.35717939 1219.57028363 431.21990967 1199.88859558 C427.25529261 1188.95243772 423.31374326 1178.00799822 419.375 1167.0625 C418.82768723 1165.54175873 418.82768723 1165.54175873 418.26931763 1163.99029541 C411.17711304 1144.28298672 404.09505588 1124.57202831 397.01287842 1104.8611145 C390.68108247 1087.23864132 384.34482693 1069.61778682 378 1052 C370.90970421 1032.31225735 363.83094663 1012.62038239 356.75531006 992.92736816 C350.17610474 974.61611918 343.59280708 956.30635746 337 938 C329.90970421 918.31225735 322.83094663 898.62038239 315.75531006 878.92736816 C309.17610473 860.61611914 302.59274459 842.30638 296 824 C289.26362258 805.29425629 282.53587013 786.58542188 275.8125 767.875 C275.57176884 767.20507774 275.33103767 766.53515549 275.08301163 765.84493256 C271.14014561 754.87243811 267.19766886 743.89980382 263.25523376 732.92715454 C259.56616986 722.65970477 255.87697255 712.39230294 252.1875 702.125 C251.82579901 701.11842472 251.82579901 701.11842472 251.45679092 700.09151459 C244.97694813 682.05893657 238.49227542 664.02810638 232 646 C222.80161291 620.45741435 213.62071972 594.90855019 204.44082642 569.35931396 C201.03771074 559.88785906 197.63424249 550.41653093 194.23046875 540.9453125 C193.99386347 540.28694271 193.75725819 539.62857292 193.51348305 538.95025253 C192.31981552 535.62880008 191.12614152 532.30734995 189.9324646 528.98590088 C187.77796114 522.99090755 185.6235153 516.99589352 183.46906471 511.0008812 C182.27104546 507.6672533 181.07302255 504.33362671 179.875 501 C179.39583332 499.66666667 178.91666665 498.33333334 178.4375 497 C178.2003125 496.34 177.963125 495.68 177.71875 495 C154 429 130.28125 363 59.84374237 166.99997807 C59.36460173 165.66671763 58.8854605 164.33345741 58.40631866 163.00019741 C57.20799884 159.66575047 56.00968942 156.33129979 54.81140137 152.99684143 C52.65997657 147.01013523 50.50848131 141.02345441 48.35659027 135.03691578 C47.16475808 131.72124383 45.97298782 128.40554962 44.78125 125.08984375 C44.4269265 124.10403478 44.4269265 124.10403478 44.06544495 123.09831047 C40.6156761 113.4998698 37.16951111 103.90014042 33.72520065 94.29973984 C31.72908547 88.73628812 29.73220737 83.17311024 27.73505402 77.61003113 C27.24677519 76.2499051 26.7585293 74.88976725 26.27031708 73.52961731 C19.33761917 54.21591836 12.35786263 34.92023348 5.25 15.67016602 C4.82096878 14.5050927 4.82096878 14.5050927 4.38327026 13.31648254 C3.86174961 11.90060065 3.33856103 10.48533136 2.81326294 9.07084656 C1.71069646 6.07515039 0.68099772 3.12181114 0 0 Z " fill="#000000" transform="translate(674,571)"/>
<path d="M0 0 C0 3.68028032 -0.93330752 4.68716144 -3.04296875 7.65625 C-3.69821533 8.58687256 -4.35346191 9.51749512 -5.02856445 10.47631836 C-5.74101318 11.4741333 -6.45346191 12.47194824 -7.1875 13.5 C-8.66471463 15.59459232 -10.141268 17.68965114 -11.6171875 19.78515625 C-12.35807617 20.8333252 -13.09896484 21.88149414 -13.86230469 22.96142578 C-16.88606499 27.2594752 -19.85412525 31.59429632 -22.8125 35.9375 C-23.86837667 37.48445208 -24.92436423 39.03132847 -25.98046875 40.578125 C-26.737229 41.68704102 -26.737229 41.68704102 -27.50927734 42.81835938 C-29.87427983 46.27948977 -32.24906678 49.73386751 -34.625 53.1875 C-35.07141846 53.8364624 -35.51783691 54.4854248 -35.9777832 55.15405273 C-36.87087138 56.45218945 -37.76401891 57.75028533 -38.65722656 59.04833984 C-40.47862497 61.69565963 -42.29905083 64.34364741 -44.11938477 66.99169922 C-45.04163744 68.33324661 -45.96400117 69.67471767 -46.88647461 71.01611328 C-49.11767581 74.26070913 -51.34760537 77.50615999 -53.57421875 80.75390625 C-58.93377249 88.56706127 -64.33168193 96.35247139 -69.75 104.125 C-77.01698153 114.55304076 -84.18626699 125.04536233 -91.33496094 135.5546875 C-97.37048048 144.41858248 -103.46645193 153.23960532 -109.60107422 162.03515625 C-117.51638509 173.38584571 -125.32915275 184.80232381 -133.09765625 196.25390625 C-136.72458185 201.59953871 -140.37530964 206.92821669 -144.0402832 212.24780273 C-147.53767679 217.32449329 -151.02063124 222.41094079 -154.5 227.5 C-158.49232949 233.33863553 -162.49044473 239.17318009 -166.5 245 C-172.13252094 253.18613562 -177.7428283 261.38739914 -183.3515625 269.58984375 C-184.96289803 271.94575376 -186.57504199 274.30110814 -188.1875 276.65625 C-194.60679418 286.03291321 -201.01409737 295.41766189 -207.41357422 304.80786133 C-211.96329039 311.4826892 -216.52243697 318.15099785 -221.0859375 324.81640625 C-225.23126661 330.87263097 -229.36692189 336.93540938 -233.5 343 C-242.58665843 356.33191172 -251.69098288 369.65154159 -260.83691406 382.94287109 C-264.40000564 388.12262208 -267.95136826 393.31033433 -271.5 398.5 C-275.93577763 404.98706446 -280.38103266 411.46746559 -284.8359375 417.94140625 C-288.39930599 423.12167894 -291.95103702 428.30984992 -295.5 433.5 C-299.93577763 439.98706446 -304.38103266 446.46746559 -308.8359375 452.94140625 C-312.39930599 458.12167894 -315.95103702 463.30984992 -319.5 468.5 C-323.93577763 474.98706446 -328.38103266 481.46746559 -332.8359375 487.94140625 C-336.39930603 493.121679 -339.95101877 498.30986235 -343.5 503.5 C-348.8735021 511.35789708 -354.26089016 519.20611101 -359.65722656 527.04833984 C-361.93908519 530.36491763 -364.21947463 533.68250537 -366.5 537 C-369.22586084 540.96532693 -371.95197322 544.93047898 -374.6796875 548.89453125 C-379.62983381 556.08951135 -384.57022781 563.29104237 -389.5 570.5 C-394.43609457 577.71820303 -399.38256627 584.92914281 -404.33984375 592.1328125 C-406.08427489 594.66773869 -407.82643213 597.20420008 -409.56640625 599.7421875 C-414.9707539 607.62132846 -420.41298177 615.47321691 -425.875 623.3125 C-432.47051538 632.78023085 -439.00521884 642.28765979 -445.50927734 651.81835938 C-447.87427988 655.27948984 -450.24908509 658.73385485 -452.625 662.1875 C-453.07286865 662.8386377 -453.5207373 663.48977539 -453.98217773 664.16064453 C-455.76582562 666.75345319 -457.54991406 669.34595857 -459.33398438 671.93847656 C-466.35352775 682.13987135 -473.35307709 692.3547936 -480.34277344 702.57666016 C-483.60091569 707.34099722 -486.86066312 712.10423613 -490.12011719 716.86767578 C-492.85405363 720.86323913 -495.58758641 724.85907748 -498.3203125 728.85546875 C-505.6416305 739.56125103 -512.98143086 750.25412903 -520.33398438 760.93847656 C-525.73322788 768.78511438 -531.12348984 776.63776368 -536.5 784.5 C-541.87352988 792.35787815 -547.2608901 800.20611092 -552.65722656 808.04833984 C-554.47862497 810.69565963 -556.29905083 813.34364741 -558.11938477 815.99169922 C-559.04163744 817.33324661 -559.96400117 818.67471767 -560.88647461 820.01611328 C-563.11767581 823.26070913 -565.34760537 826.50615999 -567.57421875 829.75390625 C-571.55804012 835.56139246 -575.55059592 841.36213303 -579.58203125 847.13671875 C-588.98694978 860.60827443 -598.25474349 874.16639065 -607.46170044 887.77346802 C-612.23989306 894.8346442 -617.03372936 901.8851689 -621.83178711 908.93286133 C-625.34919337 914.09948191 -628.86023295 919.27020658 -632.359375 924.44921875 C-633.40399902 925.99150146 -633.40399902 925.99150146 -634.46972656 927.56494141 C-635.79730698 929.52502227 -637.12228747 931.48686725 -638.44433594 933.45068359 C-639.02989258 934.31387207 -639.61544922 935.17706055 -640.21875 936.06640625 C-640.73373047 936.82896729 -641.24871094 937.59152832 -641.77929688 938.37719727 C-642.18212891 938.91272217 -642.58496094 939.44824707 -643 940 C-643.33 940 -643.66 940 -644 940 C-643.5266811 920.6964355 -641.62266421 901.59345209 -639.64137268 882.40087128 C-639.18817026 877.9970558 -638.74253432 873.59247367 -638.29589844 869.18798828 C-637.4721156 861.07622052 -636.64151617 852.96516853 -635.80735779 844.85446167 C-635.20389299 838.98667279 -634.60246434 833.11868 -634.00292969 827.25048828 C-632.01866495 807.83191489 -630.01833119 788.4150639 -628 769 C-627.89107422 767.95177063 -627.78214844 766.90354126 -627.66992188 765.82354736 C-626.01854212 749.9390787 -624.35410375 734.05687474 -622.5625 718.1875 C-621.18636955 705.96689412 -619.9326969 693.73452304 -618.6875 681.5 C-618.58286438 680.4724762 -618.47822876 679.44495239 -618.37042236 678.3862915 C-617.19547365 666.84070631 -616.02879642 655.2943038 -614.8697052 643.74711609 C-614.22747567 637.3520583 -613.58311579 630.95721677 -612.9375 624.5625 C-612.80969147 623.2961673 -612.68188293 622.02983459 -612.55020142 620.72512817 C-610.9731589 605.13587596 -609.29534913 589.56814688 -607.39599609 574.01513672 C-605.9937284 562.36743239 -604.89500093 550.69875864 -603.81582642 539.01742554 C-602.55581366 525.4082653 -601.1150113 511.82870333 -599.5625 498.25 C-597.62445395 481.28957501 -595.97104033 464.31407573 -594.4375 447.3125 C-593.00434768 431.43721067 -591.45890308 415.60137896 -589.52148438 399.77978516 C-585.51783533 366.94076956 -582.46937664 333.98755076 -580 301 C-578.27363346 300.18759221 -576.54725086 299.37521853 -574.82080078 298.56298828 C-573.29156474 297.84317274 -571.76260126 297.12277789 -570.23388672 296.40185547 C-566.41321483 294.60100441 -562.58991651 292.8070334 -558.75390625 291.0390625 C-545.88519757 285.08922738 -533.41412344 278.46460162 -520.94140625 271.73046875 C-505.43028834 263.36694795 -489.81617388 255.23242614 -474.11621094 247.22900391 C-459.80957715 239.93294178 -445.58021462 232.49960771 -431.45678711 224.85424805 C-416.69576826 216.87092588 -401.7815516 209.19952495 -386.82763672 201.5847168 C-376.17586285 196.15822149 -365.57379059 190.64582756 -355.00527954 185.05892944 C-350.71940715 182.79568565 -346.42254457 180.55347629 -342.125 178.3125 C-341.18414551 177.82177002 -340.24329102 177.33104004 -339.27392578 176.82543945 C-327.77343484 170.83252821 -316.2515963 164.88083715 -304.73046875 158.92773438 C-294.41430401 153.59713187 -284.10053087 148.26190016 -273.78759766 142.92504883 C-272.5932803 142.30701162 -271.39894428 141.68901047 -270.20458984 141.07104492 C-257.77799831 134.64134049 -245.35512527 128.20578506 -232.97998047 121.67749023 C-217.28144269 113.39729429 -201.5231462 105.23156508 -185.76318359 97.0690918 C-179.37164134 93.7562293 -172.99023301 90.42561048 -166.625 87.0625 C-158.60818369 82.8267652 -150.55634536 78.65985181 -142.5 74.5 C-133.66075376 69.93579063 -124.83139349 65.35482559 -116.03686523 60.70483398 C-111.6973047 58.41252995 -107.34783272 56.14080892 -102.98828125 53.88671875 C-93.07627408 48.76034187 -83.19277832 43.60741563 -73.4375 38.1875 C-67.25726082 34.75652278 -61.04375879 31.45593198 -54.70214844 28.33422852 C-47.65096539 24.85445758 -40.66972869 21.24044289 -33.6875 17.625 C-33.06067322 17.30050873 -32.43384644 16.97601746 -31.7880249 16.64169312 C-21.16731114 11.14133154 -10.57119469 5.59496606 0 0 Z " fill="#000000" transform="translate(1868,958)"/>
<path d="M0 0 C3.18019898 1.18672301 5.89446343 2.44585338 8.64453125 4.43359375 C9.31266846 4.9116748 9.98080566 5.38975586 10.66918945 5.88232422 C11.37648193 6.39553223 12.08377441 6.90874023 12.8125 7.4375 C14.34313061 8.53341769 15.87439478 9.62845096 17.40625 10.72265625 C18.56253906 11.55047607 18.56253906 11.55047607 19.7421875 12.39501953 C23.07170375 14.76182747 26.43943529 17.07087933 29.8125 19.375 C38.3980029 25.2538433 46.91713799 31.22618038 55.43554688 37.20166016 C59.62173128 40.13724987 63.81101509 43.06840866 68 46 C69.66276803 47.16405163 71.32552843 48.32811414 72.98828125 49.4921875 C76.36003531 51.85248124 79.7325041 54.2117491 83.10546875 56.5703125 C91.6037739 62.51391242 100.09306169 68.46959623 108.56054688 74.45703125 C113.23032998 77.75695296 117.91146432 81.0402508 122.59863281 84.31542969 C125.95072372 86.65847928 129.29932571 89.00649087 132.64794922 91.35449219 C134.88782583 92.92152233 137.13296738 94.48073991 139.37890625 96.0390625 C140.66950625 96.94237207 141.95988636 97.84599594 143.25 98.75 C143.84063232 99.15621582 144.43126465 99.56243164 145.03979492 99.98095703 C146.39652219 100.93730802 147.7046619 101.96201384 149 103 C149 103.66 149 104.32 149 105 C144.4382726 107.35566583 139.87566647 109.70962334 135.3125 112.0625 C134.59604309 112.43192719 133.87958618 112.80135437 133.14141846 113.18197632 C120.71440888 119.58775152 108.26802439 125.95514184 95.81564331 132.31143188 C75.97409127 142.43627483 75.97409127 142.43627483 56.20849609 152.70825195 C47.99441349 157.01521769 39.74758441 161.25767409 31.5 165.5 C19.21654891 171.81958044 6.95324126 178.17593214 -5.28613281 184.58056641 C-9.057044 186.55286558 -12.83009572 188.52105106 -16.60327148 190.48901367 C-18.52745937 191.4927051 -20.45145176 192.49677141 -22.37524414 193.5012207 C-27.17527876 196.00716615 -31.97772143 198.50827741 -36.78515625 201 C-45.91286825 205.73677612 -54.99870909 210.52692064 -64 215.5 C-76.05196113 222.14521997 -88.3192202 228.37075942 -100.58007812 234.61914062 C-111.08501623 239.97477403 -121.539795 245.41760074 -131.96524048 250.92633057 C-136.38513018 253.25854743 -140.8177763 255.56633982 -145.25 257.875 C-147.20313006 258.89321946 -149.15625491 259.91144892 -151.109375 260.9296875 C-152.08326172 261.43725586 -153.05714844 261.94482422 -154.06054688 262.46777344 C-158.87444743 264.97707907 -163.68718648 267.48861026 -168.5 270 C-174.29628191 273.02457655 -180.09283329 276.04863085 -185.890625 279.0703125 C-194.76856183 283.69817319 -203.6432717 288.33165676 -212.5 293 C-222.34385624 298.18865411 -232.21024542 303.3337787 -242.078125 308.4765625 C-244.92772488 309.96231645 -247.77651733 311.44960542 -250.625 312.9375 C-260.99079023 318.35122691 -271.36573604 323.74678573 -281.75 329.125 C-289.6349969 333.21023351 -297.51524647 337.30387566 -305.375 341.4375 C-306.13127686 341.83445068 -306.88755371 342.23140137 -307.66674805 342.64038086 C-311.12429252 344.46080858 -314.56572749 346.30348866 -317.98046875 348.203125 C-318.59035645 348.54029541 -319.20024414 348.87746582 -319.82861328 349.22485352 C-321.43268958 350.11542981 -323.03106351 351.01625622 -324.62890625 351.91796875 C-325.41136719 352.27503906 -326.19382812 352.63210938 -327 353 C-327.66 352.67 -328.32 352.34 -329 352 C-328.14277344 351.154375 -327.28554687 350.30875 -326.40234375 349.4375 C-320.93420163 344.02053675 -315.52535473 338.62837331 -310.5390625 332.7578125 C-308.39465906 330.30862076 -306.07138779 328.06118444 -303.75 325.78125 C-301.91757513 323.91610326 -300.20646865 321.98072254 -298.5 320 C-295.71760668 316.77043633 -292.78980571 313.76677347 -289.75 310.78125 C-287.91757513 308.91610326 -286.20646865 306.98072254 -284.5 305 C-281.71760668 301.77043633 -278.78980571 298.76677347 -275.75 295.78125 C-273.91757513 293.91610326 -272.20646865 291.98072254 -270.5 290 C-267.71760668 286.77043633 -264.78980571 283.76677347 -261.75 280.78125 C-259.91757513 278.91610326 -258.20646865 276.98072254 -256.5 275 C-253.71760668 271.77043633 -250.78980571 268.76677347 -247.75 265.78125 C-245.91757513 263.91610326 -244.20646865 261.98072254 -242.5 260 C-239.71760668 256.77043633 -236.78980571 253.76677347 -233.75 250.78125 C-231.91757513 248.91610326 -230.20646865 246.98072254 -228.5 245 C-225.71760668 241.77043633 -222.78980571 238.76677347 -219.75 235.78125 C-217.91757513 233.91610326 -216.20646865 231.98072254 -214.5 230 C-211.74656316 226.80404653 -208.85322821 223.82769937 -205.84350586 220.87475586 C-204.06663359 219.06776312 -202.40563127 217.20655066 -200.75390625 215.28515625 C-197.08596377 211.06707083 -193.28336238 206.99310202 -189.4375 202.9375 C-188.02448973 201.44164222 -186.61173415 199.94554383 -185.19921875 198.44921875 C-184.14420166 197.33232666 -184.14420166 197.33232666 -183.06787109 196.19287109 C-175.16838305 187.81586973 -167.33601609 179.37614933 -159.53369141 170.90869141 C-152.79481928 163.60027446 -145.99747837 156.34626639 -139.20898438 149.08398438 C-133.14239315 142.59306328 -127.080851 136.09821093 -121.0625 129.5625 C-115.34390545 123.35363077 -109.5703165 117.19713204 -103.79296875 111.04296875 C-100.16771201 107.18077923 -96.55088433 103.31079621 -92.9375 99.4375 C-92.36402832 98.82277832 -91.79055664 98.20805664 -91.19970703 97.57470703 C-90.0443868 96.33614391 -88.88911326 95.09753723 -87.73388672 93.85888672 C-84.82336349 90.73853697 -81.91161713 87.61932898 -79 84.5 C-77.83332754 83.25000541 -76.66666087 82.00000541 -75.5 80.75 C-54.5 58.25 -54.5 58.25 -52.74951172 56.37475586 C-51.58410136 55.12591605 -50.41906161 53.87673029 -49.25439453 52.62719727 C-46.32146329 49.48149116 -43.38213616 46.34224636 -40.4296875 43.21484375 C-34.88037115 37.32383198 -29.43980816 31.39862088 -24.25 25.1875 C-16.75536388 16.23694935 -8.33719918 8.15619786 0 0 Z " fill="#000000" transform="translate(1730,773)"/>
</svg>
